<svg width="32" height="32" viewBox="0 0 32 32" fill="none" xmlns="http://www.w3.org/2000/svg">
<g clip-path="url(#clip0_503_13)">
<rect width="32" height="32" fill="white"/>
<path d="M22.3638 0.016014C22.2958 -0.059986 19.8458 0.0460141 17.7139 2.36001C15.5819 4.67201 15.9099 7.32401 15.9578 7.39201C16.0058 7.46001 18.9979 7.56601 20.9079 4.87601C22.8179 2.18601 22.4318 0.094014 22.3638 0.016014ZM28.9918 23.482C28.8958 23.29 24.3419 21.014 24.7659 16.638C25.1898 12.26 28.1158 11.06 28.1618 10.93C28.2078 10.8 26.9678 9.35001 25.6538 8.61601C24.6891 8.09852 23.6213 7.80203 22.5278 7.74801C22.3118 7.74201 21.5618 7.55801 20.0198 7.98001C19.0038 8.25801 16.7138 9.15801 16.0838 9.19401C15.4518 9.23001 13.5718 8.15001 11.5499 7.86401C10.2559 7.61401 8.88385 8.12601 7.90185 8.52001C6.92185 8.91201 5.05785 10.028 3.75385 12.994C2.44985 15.958 3.13185 20.654 3.61985 22.114C4.10785 23.572 4.86985 25.962 6.16585 27.706C7.31785 29.674 8.84585 31.04 9.48385 31.504C10.1219 31.968 11.9219 32.276 13.1699 31.638C14.1739 31.022 15.9858 30.668 16.7018 30.694C17.4158 30.72 18.8238 31.002 20.2659 31.772C21.4079 32.166 22.4878 32.002 23.5698 31.562C24.6518 31.12 26.2178 29.444 28.0458 26.046C28.7398 24.466 29.0558 23.612 28.9918 23.482Z" fill="black"/>
</g>
<defs>
<clipPath id="clip0_503_13">
<rect width="32" height="32" fill="white"/>
</clipPath>
</defs>
</svg>
