<svg width="21" height="21" viewBox="0 0 21 21" fill="none" xmlns="http://www.w3.org/2000/svg">
<path fill-rule="evenodd" clip-rule="evenodd" d="M1.82324 2.57588C1.82324 2.09263 2.21475 1.70088 2.6977 1.70088H7.72584C8.11627 1.70088 8.4594 1.95986 8.56666 2.3355L9.82369 6.73785C9.92816 7.10372 9.78435 7.49521 9.46794 7.70628L8.01322 8.67669C8.16656 9.5285 8.73803 10.5271 9.60121 11.3908C10.4644 12.2545 11.4623 12.8263 12.3136 12.9798L13.2834 11.5241C13.4944 11.2075 13.8856 11.0636 14.2513 11.1682L18.6509 12.426C19.0263 12.5333 19.2851 12.8766 19.2851 13.2673V18.2986C19.2851 18.7818 18.8936 19.1736 18.4106 19.1736C12.9468 19.1736 8.75004 17.888 5.92904 15.0652C3.10803 12.2425 1.82324 8.0431 1.82324 2.57588ZM3.58404 3.45088C3.71545 8.21184 4.93571 11.5964 7.16571 13.8278C9.39571 16.0592 12.7782 17.2802 17.5362 17.4117V13.9273L14.3845 13.0263L13.4816 14.3816C13.3194 14.625 13.0464 14.7712 12.754 14.7712C11.1709 14.7712 9.54705 13.8114 8.36454 12.6282C7.18204 11.445 6.22287 9.82012 6.22287 8.23605C6.22287 7.94349 6.36899 7.67028 6.61226 7.508L7.96671 6.60448L7.06624 3.45088H3.58404Z" fill="black"/>
</svg>
